<?xml version="1.0" encoding="utf-8"?>
<!-- Generator: Adobe Illustrator 27.5.0, SVG Export Plug-In . SVG Version: 6.00 Build 0)  -->
<svg version="1.1" xmlns="http://www.w3.org/2000/svg" xmlns:xlink="http://www.w3.org/1999/xlink" x="0px" y="0px"
	 viewBox="0 0 750 500" style="enable-background:new 0 0 750 500;" xml:space="preserve">
<g id="BACKGROUND_2">
	<g>
		<defs>
			<rect id="SVGID_1_" width="750" height="500"/>
		</defs>
		<clipPath id="SVGID_00000133521283395099279080000003041557915094446487_">
			<use xlink:href="#SVGID_1_"  style="overflow:visible;"/>
		</clipPath>
		
			<rect style="clip-path:url(#SVGID_00000133521283395099279080000003041557915094446487_);fill:transparent;" width="750" height="500"/>
		
		<g style="clip-path:url(#SVGID_00000133521283395099279080000003041557915094446487_);">
			<path style="fill:#1B1C37;" d="M165.183,68.066c-5.658-9.803-16.411-13.364-26.793-15.725c-0.432-0.098-0.85-0.154-1.261-0.187
				c-1.939-1.665-4.916-2.133-7.024,0.148c-13.38,14.48-25.421,29.887-37.515,45.44c-3.147,4.048-2.733,10.999,3.257,12.338
				c13.189,2.949,26.392,6.142,39.671,8.655c5.998,1.135,9.434-0.288,13.03-5.195c3.997-5.453,7.866-11.007,11.789-16.513
				C166.658,88.156,171.185,78.467,165.183,68.066z"/>
			<g>
				<path style="fill:#464866;" d="M164.686,81.145c0.176-0.226,0.269-0.521,0.189-0.879c-0.957-4.294-1.993-8.616-3.326-12.815
					c0.391-0.567,0.302-1.547-0.555-1.863c-8.259-3.04-16.501-6.132-24.779-9.121c-6.392-2.308-7.329,0.924-11.531,6.123
					c-10.796,13.357-22.352,26.407-32.247,40.451c-0.892,0.097-1.186,1.486-0.167,1.75c16.146,4.182,31.943,8.996,47.694,14.478
					c0.88,0.306,1.371-0.559,1.175-1.261c7.851-11.936,15.123-24.073,23.673-35.562C165.189,81.939,165.038,81.458,164.686,81.145z
					 M139.632,116.98c-14.743-5.585-30.047-10.149-45.432-13.6c10.003-10.886,18.951-22.912,28.253-34.393
					c2.273-2.806,4.408-6.024,6.951-8.579c3.398-3.415,5.186-2.079,9.576-0.468c6.339,2.326,12.677,4.651,19.016,6.977
					c-2.734,2.693-5.204,5.967-7.261,9.132c-0.354,0.545,0.282,1.16,0.803,0.992c0.011,0.303,0.142,0.588,0.472,0.732
					c3.294,1.439,6.8,3.21,10.325,4.149C153.971,92.881,145.68,104.558,139.632,116.98z M152.775,75.957
					c-0.041-0.017-0.078-0.01-0.118-0.02c2.466-2.702,4.984-5.464,7.234-8.326c0.035,0.013,0.07,0.026,0.106,0.039
					c0.673,4.275,1.66,8.527,2.71,12.723C159.632,78.559,156.019,77.298,152.775,75.957z"/>
				<path style="fill:#464866;" d="M149.171,72.218c-5.722-2.859-12.301-5.873-18.552-7.225c-0.446-0.096-0.747,0.519-0.32,0.76
					c5.635,3.18,12.239,5.564,18.271,7.889C149.391,73.96,149.957,72.611,149.171,72.218z"/>
				<path style="fill:#464866;" d="M154.194,82.301c-9.071-4.12-18.848-8.382-28.606-10.473c-0.471-0.101-0.839,0.599-0.348,0.826
					c9.15,4.234,18.927,7.453,28.262,11.29C154.435,84.328,155.12,82.722,154.194,82.301z"/>
				<path style="fill:#464866;" d="M147.657,90.444c-8.48-4.37-17.989-9.425-27.271-11.802c-0.433-0.111-0.654,0.463-0.297,0.703
					c7.893,5.299,17.885,8.96,26.561,12.823C147.798,92.678,148.819,91.043,147.657,90.444z"/>
				<path style="fill:#464866;" d="M143.846,97.871c-2.648-2.485-8.836-3.225-12.209-4.423c-5.802-2.061-11.506-4.368-17.253-6.574
					c-0.516-0.198-0.867,0.643-0.376,0.893c4.266,2.174,8.638,4.072,13.085,5.84c2.363,0.939,4.742,1.833,7.139,2.685
					c1.369,0.486,2.741,0.961,4.118,1.423c1.208,0.685,2.448,0.871,3.718,0.563c-0.137,0.294-0.124,0.645,0.18,0.91
					c0.051,0.045,0.102,0.089,0.153,0.134c0.379,0.332,0.864,0.328,1.246,0c0.066-0.057,0.133-0.115,0.2-0.172
					C144.208,98.838,144.182,98.186,143.846,97.871z"/>
				<path style="fill:#464866;" d="M105.484,103.384c-2.261-0.791-4.675-1.41-7.006-1.96c-0.524-0.124-0.724,0.628-0.221,0.802
					c2.265,0.782,4.636,1.55,6.97,2.09C105.838,104.458,106.069,103.589,105.484,103.384z"/>
				<path style="fill:#464866;" d="M107.549,102.125c-1.894-0.67-3.902-0.983-5.902-1.093c-0.494-0.027-0.476,0.708,0,0.759
					c1.947,0.205,3.783,0.686,5.64,1.286C107.896,103.275,108.142,102.335,107.549,102.125z"/>
				<path style="fill:#464866;" d="M154.074,66.013c-1.665-0.902-3.701-1.368-5.489-1.988c-0.526-0.182-0.726,0.624-0.227,0.822
					c1.724,0.683,3.537,1.646,5.347,2.04C154.214,66.998,154.571,66.283,154.074,66.013z"/>
				<path style="fill:#464866;" d="M153.936,68.072c-1.797-0.628-3.59-1.257-5.405-1.832c-0.368-0.116-0.635,0.48-0.268,0.636
					c1.788,0.761,3.594,1.468,5.402,2.177C154.27,69.291,154.558,68.289,153.936,68.072z"/>
			</g>
		</g>
		
		
		
		
		
		
		
		
		
		
		
		
		<g style="clip-path:url(#SVGID_00000133521283395099279080000003041557915094446487_);">
			<path style="fill:#1B1C37;" d="M247.048,82.308c0.084-0.597,0.108-1.238,0.052-1.933c-1.158-14.334-16.324-21.232-26.85-14.831
				c-3.852-2.212-8.526-2.904-12.971-1.378c-3.41,1.17-6.488,3.601-8.42,6.645c-0.721,1.136-1.136,2.25-1.405,3.358
				c-5.111-0.417-10.106,1.36-12.615,6.696c-3.717,7.906,1.162,14.693,7.714,18.562c-0.373,10.834,5.716,20.535,15.031,25.036
				c-0.057,1.04-0.112,2.077-0.163,3.1c-0.416,8.319,12.804,10.195,14.614,1.978c0.134-0.608,0.292-1.535,0.505-2.588
				c4.013-0.422,7.852-1.665,11.349-3.55c1.254,1.137,2.439,2.175,3.411,2.64c6.236,2.984,14.648-3.458,10.233-10.233l-1.306-2.004
				c-0.23-0.353-0.48-0.655-0.734-0.949c1.676-2.495,3.036-5.223,3.962-8.146C251.911,96.961,250.895,88.839,247.048,82.308z"/>
			<g>
				<path style="fill:#464866;" d="M238.758,91.793c-4.279-9.864-16.695-15.153-26.682-10.931
					c-9.343,3.949-14.622,14.534-11.23,24.242c3.736,10.692,15.067,14.715,25.362,11.739c0.21,0.205,0.498,0.325,0.825,0.226
					C237.615,113.869,243.201,102.036,238.758,91.793z M226.388,115.379c-9.735,1.302-19.99-0.116-23.702-10.783
					c-2.89-8.306,1.115-17.207,8.765-21.296c8.638-4.618,19.97-0.603,24.603,7.791C241.497,100.951,235.935,111.293,226.388,115.379
					z"/>
				<path style="fill:#464866;" d="M221.734,97.813c-0.515-0.531-1.201-0.761-1.885-0.731c-0.251-0.054-0.513-0.041-0.775,0
					c-1.391-3.896-2.617-7.81-4.263-11.616c-0.384-0.887-1.884-0.255-1.567,0.661c1.35,3.901,3.095,7.589,4.691,11.385
					c-0.173,0.11-0.335,0.231-0.473,0.364c-0.885,0.856-1.227,2.225-0.609,3.333c0.122,0.219,0.28,0.402,0.446,0.576
					c-2.042,1.928-3.874,4.326-5.535,6.507c-0.551,0.724,0.649,1.633,1.257,0.97c1.877-2.048,3.941-4.321,5.478-6.714
					c1.445,0.519,3.227,0.053,3.845-1.545C222.753,99.946,222.534,98.635,221.734,97.813z"/>
				<path style="fill:#464866;" d="M209.287,103.846c-0.833,0.161-1.625,0.581-2.405,0.907c-0.727,0.303-1.452,0.603-2.154,0.961
					c-0.45,0.229-0.136,0.942,0.34,0.807c0.824-0.233,1.623-0.534,2.426-0.829c0.736-0.27,1.52-0.489,2.189-0.906
					C210.193,104.469,209.852,103.737,209.287,103.846z"/>
				<path style="fill:#464866;" d="M233.91,92.28c-1.389,0.391-2.916,1.189-4.145,1.936c-0.494,0.3-0.175,1.097,0.396,0.94
					c1.385-0.379,3.018-0.94,4.254-1.679C235.046,93.1,234.635,92.076,233.91,92.28z"/>
				<path style="fill:#464866;" d="M227.503,111.725c-0.202-1.061-1.034-2.143-1.557-3.074c-0.346-0.617-1.22-0.076-0.934,0.546
					c0.453,0.981,0.837,2.26,1.587,3.055C226.995,112.671,227.597,112.224,227.503,111.725z"/>
				<path style="fill:#464866;" d="M246.535,117.291c-0.735-1.638-2.372-2.499-3.512-3.809c4.551-7.226,4.928-17.419,1.498-25.416
					c-0.999-2.33-2.381-4.316-4.034-5.992c1.871-5.382-1.097-11.595-6.452-13.672c-2.82-1.093-7.247-0.876-10.693,0.674
					c-0.009-0.118-0.039-0.236-0.125-0.35c-3.148-4.197-9.243-3.65-13.878-2.709c-5.039,1.023-9.921,4.467-9.742,10.078
					c0.031,0.986,1.386,0.935,1.497,0c0.602-5.068,4.769-7.602,9.394-8.458c3.712-0.687,8.876-1.223,11.448,2.078
					c0.021,0.027,0.049,0.037,0.073,0.059c-1.747,1.067-3.085,2.546-3.544,4.462c-0.054,0.224,0.041,0.41,0.219,0.539
					c0.145,0.105,0.29,0.21,0.435,0.315c0.216,0.156,0.581-0.108,0.473-0.364c-0.747-1.774,5.439-4.509,6.478-4.829
					c2.606-0.803,5.653-0.869,8.135,0.417c3.874,2.007,5.897,6.378,4.927,10.495c-8.024-6.758-21.102-7.237-30.483-3.037
					c-0.777,0.348-1.524,0.731-2.24,1.146c-5.045-3.661-13.474-2.007-16.967,3.085c-3.173,4.625,0.293,12.862,5.66,14.414
					c-0.487,4.472,0.263,9.164,2.424,13.546c3.483,7.061,10.274,11.58,17.745,13.186c-0.981,2.164-2.058,7.667,1.769,7.532
					c2.967-0.104,4.619-4.086,4.352-6.884c3.547,0,7.09-0.633,10.367-1.983c0.019-0.004,0.035,0.001,0.055-0.004
					c2.8-0.746,5.189-2.031,7.19-3.701c0.012,0.026,0.016,0.053,0.034,0.078c1.462,2.019,4.218,4.802,6.826,2.679
					C246.945,119.987,247.085,118.516,246.535,117.291z M192.98,80.729c3.809-2.732,7.942-2.387,12.039-0.903
					c-5.415,3.678-8.791,9.303-9.763,15.462C190.112,92.336,187.498,84.662,192.98,80.729z M217.694,128.89
					c-2.838,1.466-1.723-4.481-1.498-5.562c1.179,0.214,2.368,0.373,3.566,0.441C219.733,125.655,219.528,127.943,217.694,128.89z
					 M231.443,120.469c-0.135,0.047-0.229,0.124-0.306,0.212c-11.181,2.846-24.106,1.04-30.822-9.468
					c-6.72-10.515-3.704-24.98,7.45-30.973c10.287-5.528,26.496-4.755,33.488,5.733C248.833,97.344,244.862,115.807,231.443,120.469
					z M244.943,119.72c-1.756,1.76-4.069-0.873-5.115-2.142c-0.033-0.04-0.072-0.063-0.111-0.087
					c0.887-0.819,1.689-1.718,2.406-2.684C243.451,116.05,246.534,118.127,244.943,119.72z"/>
				<path style="fill:#464866;" d="M235.831,111.572c-0.398,0.904-0.611,1.826-1.191,2.656c-0.628,0.898-1.477,1.565-2.462,2.029
					c-0.484,0.228-0.134,1.082,0.368,0.874c1.998-0.828,4.317-2.932,4.224-5.305C236.753,111.371,236.046,111.082,235.831,111.572z"
					/>
				<path style="fill:#464866;" d="M239.402,110.849c-0.244,0.932-0.404,1.776-0.995,2.574c-0.599,0.808-1.416,1.386-2.37,1.7
					c-0.456,0.149-0.272,0.839,0.199,0.721c2.078-0.517,4.302-2.546,4.208-4.854C240.419,110.407,239.558,110.253,239.402,110.849z"
					/>
				<path style="fill:#464866;" d="M206.458,90.454c-2.108,0.557-3.137,3.484-2.568,5.402c0.083,0.278,0.51,0.229,0.51-0.069
					c0.002-0.969,0.159-1.892,0.636-2.746c0.455-0.816,1.163-1.283,1.811-1.917C207.136,90.84,206.84,90.354,206.458,90.454z"/>
				<path style="fill:#464866;" d="M207.878,90.112c-1.206,1.089-1.711,2.982-1.128,4.515c0.107,0.281,0.578,0.27,0.562-0.076
					c-0.072-1.465,0.291-2.63,1.265-3.741C208.994,90.333,208.352,89.684,207.878,90.112z"/>
				<path style="fill:#464866;" d="M237.426,75.543c-0.658-1.824-2.663-3.102-4.447-3.602c-0.588-0.165-0.831,0.731-0.251,0.912
					c0.864,0.27,1.65,0.695,2.339,1.285c0.639,0.547,1.046,1.224,1.569,1.864C236.932,76.366,237.582,75.976,237.426,75.543z"/>
				<path style="fill:#464866;" d="M234.555,74.991c-1.035-1.383-2.434-2.414-4.031-3.059c-0.46-0.186-0.768,0.569-0.336,0.798
					c1.391,0.739,2.505,1.717,3.494,2.935C234.076,76.15,234.934,75.498,234.555,74.991z"/>
			</g>
		</g>
		<g style="clip-path:url(#SVGID_00000133521283395099279080000003041557915094446487_);">
			<path style="fill:#1B1C37;" d="M541.01,87.005c-2.845-4.129-6.157-7.813-9.836-11.005c2.493-2.694,4.314-5.748,3.71-9.258
				c-1.192-6.921-9.873-7.787-15.349-9.254c-7.57-2.027-15.245-4.704-23.038-5.694c-14.762-1.876-24.913,9.141-33.056,20.17
				c-4.845,1.27-5.819,8.154-1.254,10.844c2.751,1.621,5.93,2.744,9.235,3.647c-0.907,5.619-1.031,11.989,2.254,15.446
				c2.688,2.829,7.358,3.127,10.92,3.727c4.786,0.805,9.629,1.351,14.472,1.674c7.168,0.478,20.34,2.584,26.057-2.962
				c2.794-2.71,3.382-6.917,3.001-11.232c0.348,0.468,0.703,0.929,1.034,1.413C534.241,101.96,546.151,94.465,541.01,87.005z"/>
			<g>
				<path style="fill:#464866;" d="M537.598,90.744c-1.556-1.829-3.176-4.297-5.131-5.703c-0.597-0.429-1.307-0.637-1.957-0.521
					c-1.014-3.513-2.857-6.148-5.213-8.14c3.077-2.572,6.625-5.951,5.735-9.057c-0.999-3.488-6.316-4.488-9.167-5.413
					c-7.73-2.508-15.651-4.599-23.658-6.016c-7.467-1.322-9.8,1.222-15.575,5.873c-6.486,5.224-13.008,10.404-19.463,15.667
					c-0.39,0.013-0.59,0.389-0.516,0.728c-0.096,0.674,0.571,1.397,1.232,0.871c0.049-0.039,0.098-0.079,0.147-0.118
					c3.692,1.161,7.394,2.279,11.103,3.371c-0.468,5.759,0.802,12.496,2.176,17.96c0.081,0.322,0.335,0.491,0.614,0.529
					c-0.001,0.27,0.134,0.549,0.454,0.665c12.127,4.381,33.624,8.253,43.761-2.291c0.237-0.247,0.31-0.523,0.276-0.781
					c0.307-0.115,0.555-0.394,0.568-0.839c0.204-6.576,0.292-13.137,0.57-19.716c0.157-0.129,0.316-0.258,0.481-0.394
					c2.292,1.899,4.098,4.423,5.097,7.858c0.018,0.061,0.052,0.1,0.078,0.149c-1.836,2.761,1.657,7.885,3.611,9.573
					c0.264,0.228,0.584,0.056,0.648-0.21c0.066,0.005,0.138-0.002,0.217-0.027c1.473-0.47,2.623-1.38,3.578-2.577
					c0.106-0.133,0.145-0.266,0.158-0.395C537.733,91.592,537.911,91.112,537.598,90.744z M521.176,97.451
					c-0.191,0.034-0.38,0.11-0.549,0.288c-9.475,9.981-30.143,5.728-41.784,2.48c0.017-0.076,0.032-0.153,0.022-0.242
					c-0.399-3.384-1.068-6.739-1.56-10.113c-0.352-2.413-0.559-4.884-1.105-7.264c3.989,1.168,7.987,2.305,11.994,3.423
					c5.403,1.508,13.46,5.565,19.203,4.425c5.378-1.068,10.672-7.573,14.477-11.181C520.854,85.174,520.525,91.589,521.176,97.451z
					 M523.723,75.191c-6.177-4.136-15.018-4.718-22.502-4.506c0.145-1.048-0.296-2.162-1.175-2.758
					c-0.968-0.656-2.269-0.482-3.067,0.373c-0.167,0.179-0.301,0.388-0.408,0.608c-0.765,0.835-0.955,2.378-0.277,3.265
					c1.234,1.614,3.794,0.991,4.664-0.641c0.027,0.006,0.05,0.018,0.08,0.019c7.091,0.328,15.54,0.843,21.484,4.744
					c-1.75,1.551-3.489,2.887-4.459,3.773c-2.434,2.223-5.276,5.417-8.149,6.982c-4.436,2.416-7.878,0.737-12.086-0.431
					c-10.828-3.008-21.644-6.026-32.559-8.699c4.317-3.453,8.603-6.944,12.906-10.415c3.517-2.837,7.936-7.813,12.08-9.638
					c5.424-2.388,15.066,1.454,20.489,2.898c2.146,0.572,4.282,1.181,6.409,1.822c2.424,0.731,7.659,1.512,9.489,3.179
					C529.594,68.458,526.946,72.112,523.723,75.191z M536.124,91.368c-0.602,1.077-1.633,1.908-2.744,2.421
					c-0.104,0.048-0.173,0.121-0.226,0.2c-1.169-2.081-3.003-4.523-2.945-6.899c0.066-2.71,3.136,0.783,3.68,1.398
					c0.796,0.9,1.591,1.801,2.394,2.694C536.227,91.234,536.17,91.286,536.124,91.368z"/>
				<path style="fill:#464866;" d="M489.932,100.757c-3.009-0.353-5.798-0.834-8.694-1.748c-0.461-0.146-0.756,0.611-0.304,0.8
					c2.775,1.154,5.887,1.908,8.902,1.923C490.381,101.734,490.492,100.823,489.932,100.757z"/>
				<path style="fill:#464866;" d="M491.078,98.904c-1.915-0.225-3.833-0.181-5.749-0.498c-0.484-0.08-0.666,0.644-0.178,0.749
					c1.847,0.395,3.951,0.817,5.842,0.6C491.44,99.704,491.594,98.965,491.078,98.904z"/>
				<path style="fill:#464866;" d="M515.086,68.477c-1.801-0.296-3.675-0.548-5.499-0.617c-0.517-0.02-0.575,0.778-0.088,0.892
					c1.73,0.406,3.556,0.651,5.324,0.838C515.534,69.665,515.827,68.598,515.086,68.477z"/>
				<path style="fill:#464866;" d="M520.347,67.94c-2.381-1.957-5.772-2.826-8.812-2.501c-0.615,0.066-0.592,0.963,0.035,0.966
					c3.106,0.013,5.442,0.93,7.998,2.625C520.204,69.452,520.938,68.425,520.347,67.94z"/>
			</g>
		</g>
		
		
		<g style="clip-path:url(#SVGID_00000133521283395099279080000003041557915094446487_);">
			<path style="fill:#1B1C37;" d="M331.186,76.953c-16.325,3.898-32.784,5.687-49.55,6.04c-7.506,0.158-9.139,9.279-3.601,13.295
				c2.352,1.706,4.666,3.454,6.942,5.251c-1.018,4.473-1.425,9.176-1.971,13.643c-0.703,5.747,6.676,6.982,10.154,4.206
				c2.049-1.635,4.032-3.358,5.994-5.106c1.907,1.766,3.91,3.375,6.156,4.454c0.579,0.279,1.151,0.452,1.716,0.571
				c1.821,2.508,6.071,3.196,8.563-0.151c7.915-10.631,15.694-21.32,23.315-32.166C342.523,81.838,336.562,75.669,331.186,76.953z"
				/>
			<g>
				<path style="fill:#464866;" d="M337.337,80.424c-0.299-0.194-0.714-0.242-1.053-0.041c-0.1-0.013-0.2-0.029-0.312-0.011
					c-19.481,3.161-39.096,5.264-58.802,6.336c-0.902,0.049-1.471,1.415-0.504,1.861c5.008,2.31,10.001,4.67,15.153,6.646
					c-0.025,0.088-0.026,0.181-0.009,0.27c-2.459,6.61-4.353,13.448-6.622,20.126c-0.281,0.827,0.828,1.368,1.405,0.818
					c5.034-4.799,9.432-10.177,12.976-16.167c1.236,2.716,2.742,5.294,4.401,7.776c-5.53,1.858-11.724,4.65-16.623,7.772
					c-0.274,0.175-0.102,0.618,0.224,0.532c5.634-1.494,12.009-4.215,17.123-7.043c0.034-0.019,0.053-0.047,0.082-0.07
					c2.109,3.024,4.439,5.905,6.816,8.695c0.389,0.457,1.132,0.277,1.416-0.182c7.293-11.787,15.104-23.19,23.248-34.397
					c0.338-0.178,0.677-0.354,1.015-0.532c0.287-0.152,0.408-0.384,0.428-0.627c0.004-0.001,0.008-0.003,0.011-0.004
					C338.762,81.813,338.363,80.201,337.337,80.424z M281.125,88.473c15.239-0.904,30.412-2.454,45.514-4.638
					c-11.233,3.483-22.574,6.711-33.603,10.695c-0.027-0.024-0.047-0.052-0.081-0.071C289.109,92.281,285.123,90.362,281.125,88.473
					z M299.479,99.251c-0.348-0.347-0.987-0.428-1.325,0.117c-2.981,4.802-6.338,9.227-10.199,13.295
					c1.863-5.525,3.677-11.117,4.857-16.809c11.796-2.362,23.485-6.197,34.956-10.188c-9.288,4.597-18.712,8.873-28.068,13.36
					C299.59,99.078,299.525,99.16,299.479,99.251z M318.223,106.128c-1.399,2.15-2.629,4.898-4.342,6.791
					c-2.012,2.223-1.136,2.675-3.798,0.399c-3.824-3.269-6.617-9.107-9.559-13.309c10.985-4.128,21.634-9.32,32.063-14.742
					C327.61,92.087,322.827,99.053,318.223,106.128z"/>
				<path style="fill:#464866;" d="M316.473,104.026c-1.535,2.026-2.687,4.458-3.962,6.655c-0.324,0.559,0.516,1.042,0.861,0.504
					c1.374-2.138,3.013-4.275,4.115-6.566C317.821,103.925,316.925,103.43,316.473,104.026z"/>
				<path style="fill:#464866;" d="M314.911,102.683c-1.28,1.136-2.276,2.661-3.017,4.191c-0.248,0.512,0.487,0.959,0.772,0.451
					c0.823-1.471,1.877-2.644,3.068-3.819C316.272,102.975,315.468,102.189,314.911,102.683z"/>
				<path style="fill:#464866;" d="M299.462,107.186c-1.408,0.661-2.767,1.689-4.033,2.588c-0.309,0.22-0.046,0.684,0.299,0.512
					c1.389-0.693,2.934-1.407,4.18-2.337C300.361,107.61,299.984,106.94,299.462,107.186z"/>
				<path style="fill:#464866;" d="M299.696,105.687c-0.317,0.063-0.634,0.127-0.951,0.19c-0.267,0.054-0.357,0.254-0.331,0.454
					c-0.412,0.2-0.83,0.388-1.26,0.551c-0.485,0.184-0.303,0.927,0.218,0.792c0.947-0.246,1.863-0.579,2.708-1.078
					C300.58,106.299,300.236,105.579,299.696,105.687z"/>
			</g>
		</g>
		
		
		
		<g style="clip-path:url(#SVGID_00000133521283395099279080000003041557915094446487_);">
			<path style="fill:#1B1C37;" d="M441.514,120.289c-0.053-0.084-0.097-0.169-0.155-0.253
				c-11.525-16.915-25.717-31.668-41.099-45.117c-2.257-1.974-6.266-1.535-8.451,0.274c-13.015,10.771-25.978,21.606-38.965,32.411
				c-12.952,10.776-26.446,21.159-38.743,32.683c-3.419,3.203-2.991,7.536,0.339,10.557c13.631,12.364,23.695,28.346,37.183,40.876
				c-0.524,0.532-1.066,1.05-1.583,1.587c-6.942,7.2,1.787,18.951,10.086,12.394c15.102-11.934,29.104-25.39,43.993-37.621
				c7.457-6.125,14.991-12.157,22.598-18.094c6.982-5.449,17.052-10.788,21.964-18.177
				C452.629,125.873,447.562,119.828,441.514,120.289z"/>
			<g>
				<path style="fill:#464866;" d="M442.563,121.766c-0.495-0.495-1.246-0.143-1.338,0.375c-0.249-0.114-0.541-0.111-0.773,0.115
					c-1.321,1.278-2.588,2.641-3.791,4.049c-9.393-19.137-25.884-34.487-41.142-48.939c-0.623-0.59-1.516-0.277-1.847,0.272
					c-0.022,0.016-0.044,0.017-0.066,0.035c-25.296,20.817-51.471,41.044-75.754,63.032c-0.503,0.456-0.2,1.128,0.29,1.277
					c-0.148,0.304-0.159,0.671,0.115,1.015c7.982,9.979,16.036,19.902,24.056,29.851c4.01,4.974,8.007,9.96,12.025,14.928
					c1.277,1.579,2.296,3.57,3.913,4.366c-0.128,0.102-0.255,0.203-0.384,0.304c-0.888,0.693-1.864,1.233-2.801,1.851
					c-0.143,0.095-0.218,0.217-0.263,0.346c-0.626-0.619-1.585,0.252-1.091,1.018c1.43,2.219,3.296,4.25,5.347,5.907
					c0.399,0.322,0.895-0.155,0.764-0.572c15.138-10.618,28.729-24.113,43.033-35.849c14.501-11.897,29.259-23.46,43.874-35.212
					c0.997-0.802-0.241-2.317-1.253-1.54c-14.862,11.418-29.351,23.37-43.776,35.334c-14.159,11.744-29.845,23.054-42.49,36.441
					c-1.177-1.488-2.355-2.977-3.538-4.46c0.074-0.008,0.149-0.016,0.225-0.05c1.086-0.486,2.062-1.224,2.939-2.022
					c0.379-0.345,0.744-0.704,1.04-1.124c0.002-0.003,0.003-0.007,0.005-0.01c0.159-0.004,0.322-0.019,0.493-0.046
					c0.274-0.044,0.298-0.416,0.053-0.52c-0.03-0.013-0.059-0.032-0.089-0.045c6.099-3.931,11.422-9.305,16.907-14.008
					c6.441-5.522,12.913-11.01,19.443-16.427c13.063-10.836,26.336-21.404,39.564-32.036c0.375-0.301,0.413-0.706,0.27-1.045
					c1.785-1.579,3.495-3.272,5.069-5.049c0.07-0.079,0.113-0.163,0.139-0.249c1.74,1.979,3.619,3.786,5.617,5.502
					c0.343,0.294,0.766-0.223,0.521-0.556C446.245,125.811,444.509,123.713,442.563,121.766z M416.254,142.957
					c-0.749-1.032-3.208-3.45-3.133-4.408c0.08-1.022,3.534-3.111,4.385-3.816c1.437-1.19,2.83-2.552,4.359-3.619
					c1.507-1.052,1.398-1.143,2.966,0.493c0.725,0.757,1.343,1.609,1.987,2.433c0.075,0.096,0.167,0.154,0.264,0.196
					C423.456,137.121,419.845,140.027,416.254,142.957z M435.823,127.305c-0.123,0.151-0.244,0.304-0.366,0.456
					c-0.135,0.027-0.27,0.082-0.403,0.185c-2.32,1.804-4.62,3.635-6.923,5.462c-0.015-0.047-0.019-0.093-0.048-0.141
					c-0.526-0.89-1.134-1.682-1.8-2.421c1.888-1.087,3.582-2.579,5.276-3.936c0.466-0.373,0.272-0.967-0.119-1.213
					c-0.008-0.141-0.041-0.285-0.141-0.426c-5.195-7.33-11.703-13.749-17.749-20.368c-6.52-7.138-12.916-14.434-19.777-21.249
					c-0.384-0.382-0.974-0.041-0.92,0.387c-0.249-0.063-0.522-0.021-0.777,0.212c-10.913,9.984-22.007,19.765-33.313,29.304
					c-11.253,9.494-23.526,18.128-34.273,28.172c-0.171,0.159-0.212,0.342-0.181,0.508c-0.449,0.271-0.7,0.84-0.241,1.33
					c12.525,13.374,23.241,27.909,34.996,41.887c0.346,0.411,1.146-0.019,0.844-0.516c-9.345-15.365-22.106-29.489-34.381-42.559
					c-0.003-0.003-0.006-0.004-0.009-0.007c12.195-7.875,23.312-18.066,34.402-27.395c11.317-9.521,22.435-19.275,33.377-29.225
					c0.218-0.199,0.309-0.436,0.318-0.67c11.719,14.073,25.196,26.671,36.428,41.147c-1.525,1.24-3.108,2.483-4.4,3.95
					c-0.644-0.641-1.328-1.247-2.076-1.816c-0.283-0.216-0.723-0.191-0.993,0.032c-2.038,1.685-4.079,3.365-6.116,5.05
					c-1.388,1.148-3.884,2.501-4.761,4.022c-0.591,1.025-0.169,2.131,0.599,3.162c-17.439,14.79-35.651,29.042-52.23,44.793
					c-0.476,0.452,0.116,1.202,0.65,0.798c18.252-13.81,35.285-29.484,52.727-44.299c0.693,0.685,1.412,1.292,1.913,1.763
					c-6.632,5.423-13.212,10.91-19.761,16.425c-6.182,5.205-12.349,10.427-18.473,15.7c-5.563,4.789-11.786,9.45-16.637,15.036
					c-0.052-0.044-0.125-0.059-0.189,0.001c-0.164,0.152-0.595,0.338-0.917,0.501c-3.707-2.416-7.215-8.89-9.757-12.089
					c-3.229-4.065-6.457-8.132-9.684-12.199c-6.702-8.447-13.38-16.914-20.116-25.334c-0.134-0.168-0.292-0.255-0.454-0.309
					c25.889-19.504,50.451-41.125,75.408-61.808C410.242,94.315,424.315,109.217,435.823,127.305z"/>
				<path style="fill:#464866;" d="M367.8,187.203c-1.187,1.323-2.503,2.484-3.976,3.477c-0.335,0.226,0.061,0.699,0.394,0.484
					c0.075-0.048,0.143-0.102,0.217-0.151c-1.428,1.27-2.76,2.769-4.002,4.099c-0.257,0.275,0.194,0.667,0.474,0.444
					c1.982-1.585,4.301-3.316,5.883-5.307c0.289-0.364-0.121-0.726-0.489-0.636c0.728-0.618,1.413-1.286,2.05-2.017
					C368.637,187.266,368.087,186.883,367.8,187.203z"/>
				<path style="fill:#464866;" d="M388.667,92.416c-1.638,1.208-3.23,2.568-4.741,3.932c-0.452,0.408,0.105,1.094,0.597,0.733
					c1.642-1.202,3.298-2.485,4.813-3.843C389.844,92.783,389.217,92.01,388.667,92.416z"/>
				<path style="fill:#464866;" d="M392.4,93.488c-1.707,0.776-3.234,2.013-4.475,3.404c-0.341,0.383,0.286,0.971,0.661,0.62
					c1.309-1.224,2.69-2.172,4.232-3.072C393.381,94.111,393.023,93.204,392.4,93.488z"/>
				<path style="fill:#464866;" d="M347.59,161.466c-0.441-0.494-1.193,0.117-0.798,0.65c1.128,1.52,2.414,3.012,3.709,4.393
					c0.362,0.386,0.942-0.085,0.637-0.518C350.048,164.442,348.849,162.88,347.59,161.466z"/>
				<path style="fill:#464866;" d="M348.022,160.384c0.774,1.477,1.945,2.823,2.916,4.178c0.302,0.422,1.065-0.029,0.791-0.483
					c-0.857-1.422-1.625-3.04-2.67-4.329C348.634,159.228,347.693,159.758,348.022,160.384z"/>
			</g>
		</g>
		
		
		<g style="clip-path:url(#SVGID_00000133521283395099279080000003041557915094446487_);">
			<path style="fill:#1B1C37;" d="M622.171,120.738c2.068-4.81-2.758-11.673-8.245-9.049c-4.91,2.348-10.652,4.365-13.288,9.426
				c-1.438,2.762,0.841,5.521,3.56,5.793c-2.797,5.485-5.506,11.029-7.552,16.713c-3.071,8.534,8.308,14.044,12.817,6.02
				C614.559,140.574,618.061,130.297,622.171,120.738z"/>
			<path style="fill:#464866;" d="M623.311,118.493c-0.037-0.08-0.086-0.157-0.155-0.224c-2.372-2.326-5.879-4.468-9.081-5.427
				c-0.175-0.155-0.43-0.21-0.694-0.036c-0.016,0.01-0.031,0.022-0.046,0.032c-0.048,0.025-0.091,0.055-0.131,0.09
				c-1.871,1.247-3.588,2.675-5.56,3.783c-2.217,1.245-4.523,1.931-6.911,2.735c-0.861,0.29-0.685,1.6,0.112,1.739
				c0.689,0.848,1.376,1.698,1.999,2.596c0.717,1.032,1.243,2.211,2.002,3.203c0.34,0.444,0.969,0.385,1.292,0.057
				c0.082-0.011,0.167-0.039,0.252-0.091c0.868-0.532,1.768-0.994,2.716-1.369c0.495-0.196,1.015-0.338,1.529-0.491
				c-5.073,6.671-9.191,14.46-12.678,22c-0.252,0.545,0.006,1.003,0.404,1.228c-0.119,0.185-0.131,0.451,0.056,0.591
				c0.898,0.67,1.975,1.042,2.986,1.516c1.138,0.533,2.232,1.183,3.39,1.663c0.51,0.211,1.031-0.206,1.095-0.66
				c0.212,0.105,0.465,0.093,0.635-0.156c6.699-9.826,11.708-21.016,17.231-31.532C624.043,119.189,623.749,118.705,623.311,118.493
				z M605.553,150.646c-0.016,0.038-0.016,0.075-0.023,0.113c-1.614-1.136-3.919-2.286-5.994-2.568
				c0.076-0.074,0.151-0.151,0.208-0.261c4.122-7.918,8.811-15.492,13.008-23.352c0.237-0.445-0.109-0.876-0.516-0.968
				c-0.113-0.231-0.344-0.4-0.689-0.369c-1.911,0.17-3.944,1.394-5.532,2.501c-0.846-1.734-2.269-3.403-3.705-4.786
				c4.03-0.903,8.494-3.23,11.167-6.38c1.456,0.828,3.023,1.46,4.488,2.282c1.318,0.74,2.558,1.599,3.848,2.381
				C616.495,129.685,610.153,139.874,605.553,150.646z"/>
		</g>
	</g>
</g>


</svg>
